<?xml version="1.0" encoding="UTF-8"?>
<svg xmlns="http://www.w3.org/2000/svg" width="3500" height="1620" viewBox="0 0 3500 1620">
  <defs>
    <style>
      text {
        font-family: "Noto Sans CJK SC", "Microsoft YaHei", "PingFang SC", sans-serif;
        fill: #0f172a;
        letter-spacing: 0;
      }
      .title { font-size: 92px; font-weight: 850; }
      .file-title { font-size: 44px; font-weight: 850; fill: #334155; }
      .box-title { font-size: 40px; font-weight: 850; }
      .box-body { font-size: 33px; fill: #334155; }
      .label { font-size: 29px; font-weight: 820; }
      .tiny { font-size: 28px; fill: #475569; }
    </style>
    <marker id="arrow-control" viewBox="0 0 10 10" refX="9" refY="5" markerWidth="13" markerHeight="13" orient="auto">
    <path d="M 0 0 L 10 5 L 0 10 z" fill="#2563eb"/>
  </marker>
<marker id="arrow-data" viewBox="0 0 10 10" refX="9" refY="5" markerWidth="13" markerHeight="13" orient="auto">
    <path d="M 0 0 L 10 5 L 0 10 z" fill="#16a34a"/>
  </marker>
<marker id="arrow-pulse" viewBox="0 0 10 10" refX="9" refY="5" markerWidth="13" markerHeight="13" orient="auto">
    <path d="M 0 0 L 10 5 L 0 10 z" fill="#ea580c"/>
  </marker>
<marker id="arrow-state" viewBox="0 0 10 10" refX="9" refY="5" markerWidth="13" markerHeight="13" orient="auto">
    <path d="M 0 0 L 10 5 L 0 10 z" fill="#7c3aed"/>
  </marker>
<marker id="arrow-alert" viewBox="0 0 10 10" refX="9" refY="5" markerWidth="13" markerHeight="13" orient="auto">
    <path d="M 0 0 L 10 5 L 0 10 z" fill="#dc2626"/>
  </marker>
<marker id="arrow-display" viewBox="0 0 10 10" refX="9" refY="5" markerWidth="13" markerHeight="13" orient="auto">
    <path d="M 0 0 L 10 5 L 0 10 z" fill="#475569"/>
  </marker>
  </defs>
  <rect width="3500" height="1620" fill="#f8fafc"/>
  <g transform="translate(0 -170)">
  <rect x="80" y="230" width="420" height="220" rx="14" fill="#f5f7fb" stroke="#5c6675" stroke-width="4"/>
  <text class="box-title" x="106" y="286">外部输入</text>
  <text class="box-body" x="106" y="334">clk / clr / tick</text>
<text class="box-body" x="106" y="376">mode_sel / ui_*</text>
<text class="box-body" x="106" y="418">alarm_enable_sw</text><rect x="2760" y="230" width="390" height="220" rx="14" fill="#f5f7fb" stroke="#5c6675" stroke-width="4"/>
  <text class="box-title" x="2786" y="286">外部输出</text>
  <text class="box-body" x="2786" y="334">bcd_* / seg_sec_low</text>
<text class="box-body" x="2786" y="376">speaker</text><rect x="570" y="190" width="2020" height="470" rx="16" fill="#eef4f8" stroke="#8aa0b8" stroke-width="4"/>
  <text class="file-title" x="598" y="248">clock_core.v</text><rect x="820" y="290" width="1040" height="138" rx="14" fill="#eef4ff" stroke="#2563eb" stroke-width="4"/>
  <text class="box-title" x="848" y="346">mode_sel 解码与通路选择</text>
  <text class="box-body" x="848" y="390">顶层决定普通走时、设置时间、闹钟三条主路径</text><rect x="690" y="500" width="380" height="135" rx="14" fill="#eef4ff" stroke="#2563eb" stroke-width="4"/>
  <text class="box-title" x="718" y="556">mode_sel=00</text>
  <text class="box-body" x="718" y="600">普通走时通路</text><rect x="1190" y="500" width="380" height="135" rx="14" fill="#eef4ff" stroke="#2563eb" stroke-width="4"/>
  <text class="box-title" x="1218" y="556">mode_sel=01</text>
  <text class="box-body" x="1218" y="600">设置当前时间</text><rect x="1690" y="500" width="420" height="135" rx="14" fill="#eef4ff" stroke="#2563eb" stroke-width="4"/>
  <text class="box-title" x="1718" y="556">mode_sel=10</text>
  <text class="box-body" x="1718" y="600">设置 / 比较闹钟</text><rect x="2140" y="355" width="420" height="215" rx="14" fill="#f4f7fb" stroke="#475569" stroke-width="4"/>
  <text class="box-title" x="2168" y="411">显示与蜂鸣输出</text>
  <text class="box-body" x="2168" y="455">选择 time_* 或 disp_*</text>
<text class="box-body" x="2168" y="495">speaker = tick ?</text>
<text class="box-body" x="2168" y="535">speaker_d : 0</text><rect x="160" y="820" width="800" height="340" rx="16" fill="#eef4f8" stroke="#8aa0b8" stroke-width="4"/>
  <text class="file-title" x="188" y="878">time_core.v</text><rect x="270" y="955" width="620" height="165" rx="14" fill="#fff2e8" stroke="#ea580c" stroke-width="4"/>
  <text class="box-title" x="298" y="1011">普通走时</text>
  <text class="box-body" x="298" y="1055">tick_pluse 推动计时</text>
<text class="box-body" x="298" y="1095">输出当前 BCD 时间</text><rect x="1070" y="820" width="1180" height="340" rx="16" fill="#eef4f8" stroke="#8aa0b8" stroke-width="4"/>
  <text class="file-title" x="1098" y="878">settime_alarm_core.v</text><rect x="1180" y="955" width="430" height="165" rx="14" fill="#f5f1ff" stroke="#7c3aed" stroke-width="4"/>
  <text class="box-title" x="1208" y="1011">设置时间</text>
  <text class="box-body" x="1208" y="1055">编辑当前时间</text>
<text class="box-body" x="1208" y="1095">confirm 写回</text><rect x="1770" y="955" width="470" height="165" rx="14" fill="#fff1f1" stroke="#dc2626" stroke-width="4"/>
  <text class="box-title" x="1798" y="1011">闹钟设置 / 比较</text>
  <text class="box-body" x="1798" y="1055">保存闹钟时间</text>
<text class="box-body" x="1798" y="1095">匹配输出 speaker_d</text><rect x="610" y="1350" width="1180" height="340" rx="16" fill="#eef4f8" stroke="#8aa0b8" stroke-width="4"/>
  <text class="file-title" x="638" y="1408">counter 与译码文件（简化）</text><rect x="760" y="1480" width="880" height="170" rx="14" fill="#edfdf0" stroke="#16a34a" stroke-width="4"/>
  <text class="box-title" x="788" y="1536">计时执行层</text>
  <text class="box-body" x="788" y="1580">second / hour counter 与 bcd_to_7_seg</text>
<text class="box-body" x="788" y="1620">这里只做一笔带过</text><path d="M 500 340 L 820 359" fill="none" stroke="#2563eb" stroke-width="4.6" stroke-linejoin="round" stroke-linecap="round" marker-end="url(#arrow-control)"/>
  <rect x="520" y="267" width="130" height="69" rx="9" fill="#ffffff" stroke="#2563eb" stroke-width="2.4"/>
  <text class="label" x="585" y="301.5" text-anchor="middle" dominant-baseline="middle" fill="#2563eb">输入信号</text><path d="M 880 428 L 880 500" fill="none" stroke="#2563eb" stroke-width="4.6" stroke-linejoin="round" stroke-linecap="round" marker-end="url(#arrow-control)"/>
  <path d="M 1380 428 L 1380 500" fill="none" stroke="#2563eb" stroke-width="4.6" stroke-linejoin="round" stroke-linecap="round" marker-end="url(#arrow-control)"/>
  <path d="M 1900 428 L 1900 500" fill="none" stroke="#2563eb" stroke-width="4.6" stroke-linejoin="round" stroke-linecap="round" marker-end="url(#arrow-control)"/>
  <path d="M 1860 360 L 2000 360 L 2000 450 L 2140 450" fill="none" stroke="#2563eb" stroke-width="4.6" stroke-linejoin="round" stroke-linecap="round" marker-end="url(#arrow-control)"/>
  <rect x="1955" y="374" width="188" height="69" rx="9" fill="#ffffff" stroke="#2563eb" stroke-width="2.4"/>
  <text class="label" x="2049" y="408.5" text-anchor="middle" dominant-baseline="middle" fill="#2563eb">mode_sel</text><path d="M 2560 460 L 2670 460 L 2670 340 L 2760 340" fill="none" stroke="#475569" stroke-width="4.6" stroke-linejoin="round" stroke-linecap="round" marker-end="url(#arrow-display)"/>
  <rect x="2563" y="356" width="206" height="104" rx="9" fill="#ffffff" stroke="#475569" stroke-width="2.4"/>
  <text class="label" x="2666" y="390.5" text-anchor="middle" dominant-baseline="middle" fill="#475569">bcd_*</text>
<text class="label" x="2666" y="425.5" text-anchor="middle" dominant-baseline="middle" fill="#475569">/ speaker</text><path d="M 880 635 L 880 735 L 570 735 L 570 955" fill="none" stroke="#2563eb" stroke-width="4.6" stroke-linejoin="round" stroke-linecap="round" marker-end="url(#arrow-control)"/>
  <rect x="591" y="692" width="130" height="69" rx="9" fill="#ffffff" stroke="#2563eb" stroke-width="2.4"/>
  <text class="label" x="656" y="726.5" text-anchor="middle" dominant-baseline="middle" fill="#2563eb">00</text><path d="M 1380 635 L 1380 955" fill="none" stroke="#2563eb" stroke-width="4.6" stroke-linejoin="round" stroke-linecap="round" marker-end="url(#arrow-control)"/>
  <rect x="1395" y="724" width="130" height="69" rx="9" fill="#ffffff" stroke="#2563eb" stroke-width="2.4"/>
  <text class="label" x="1460" y="758.5" text-anchor="middle" dominant-baseline="middle" fill="#2563eb">01</text><path d="M 1900 635 L 1900 955" fill="none" stroke="#2563eb" stroke-width="4.6" stroke-linejoin="round" stroke-linecap="round" marker-end="url(#arrow-control)"/>
  <rect x="1915" y="724" width="130" height="69" rx="9" fill="#ffffff" stroke="#2563eb" stroke-width="2.4"/>
  <text class="label" x="1980" y="758.5" text-anchor="middle" dominant-baseline="middle" fill="#2563eb">10</text><path d="M 870 1032 L 1180 1032" fill="none" stroke="#16a34a" stroke-width="4.6" stroke-linejoin="round" stroke-linecap="round" marker-end="url(#arrow-data)"/>
  <rect x="903" y="944" width="296" height="69" rx="9" fill="#ffffff" stroke="#16a34a" stroke-width="2.4"/>
  <text class="label" x="1051" y="978.5" text-anchor="middle" dominant-baseline="middle" fill="#16a34a">cur_hour / min</text><path d="M 1395 1110 L 1395 1240 L 720 1240 L 720 1110" fill="none" stroke="#2563eb" stroke-width="4.6" stroke-linejoin="round" stroke-linecap="round" marker-end="url(#arrow-control)"/>
  <rect x="745" y="1166" width="404" height="69" rx="9" fill="#ffffff" stroke="#2563eb" stroke-width="2.4"/>
  <text class="label" x="947" y="1200.5" text-anchor="middle" dominant-baseline="middle" fill="#2563eb">time_load_en + set_*</text><path d="M 570 1110 L 570 1290 L 1200 1290 L 1200 1480" fill="none" stroke="#ea580c" stroke-width="4.6" stroke-linejoin="round" stroke-linecap="round" marker-end="url(#arrow-pulse)"/>
  <rect x="1225" y="1379" width="224" height="69" rx="9" fill="#ffffff" stroke="#ea580c" stroke-width="2.4"/>
  <text class="label" x="1337" y="1413.5" text-anchor="middle" dominant-baseline="middle" fill="#ea580c">tick_pluse</text>
  </g>
  <g>
    <rect x="2240" y="1260" width="940" height="142" rx="14" fill="#ffffff" stroke="#cbd5e1" stroke-width="2.5"/>
    <text class="tiny" x="2264" y="1306" font-weight="780">颜色含义</text>
    <rect x="2268" y="1321" width="26" height="26" rx="5" fill="#eef4ff" stroke="#2563eb" stroke-width="2.4"/>
        <text class="tiny" x="2310" y="1344">控制/使能</text>
<rect x="2593" y="1321" width="26" height="26" rx="5" fill="#edfdf0" stroke="#16a34a" stroke-width="2.4"/>
        <text class="tiny" x="2635" y="1344">数据/BCD</text>
<rect x="2918" y="1321" width="26" height="26" rx="5" fill="#fff2e8" stroke="#ea580c" stroke-width="2.4"/>
        <text class="tiny" x="2960" y="1344">脉冲/进位</text>
<rect x="2268" y="1361" width="26" height="26" rx="5" fill="#f5f1ff" stroke="#7c3aed" stroke-width="2.4"/>
        <text class="tiny" x="2310" y="1384">状态</text>
<rect x="2593" y="1361" width="26" height="26" rx="5" fill="#fff1f1" stroke="#dc2626" stroke-width="2.4"/>
        <text class="tiny" x="2635" y="1384">告警/完成</text>
<rect x="2918" y="1361" width="26" height="26" rx="5" fill="#f4f7fb" stroke="#475569" stroke-width="2.4"/>
        <text class="tiny" x="2960" y="1384">显示/输出</text>
  </g>
</svg>